<svg width="121" height="103" viewBox="0 0 121 103" fill="none" xmlns="http://www.w3.org/2000/svg">
<rect x="0.25" y="0.25" width="120.5" height="102.5" fill="white" stroke="#FF9559" stroke-width="0.5"/>
<path d="M24.576 58L22.288 46.16H24.704L25.632 51.936C25.824 53.184 26 54.448 26.192 55.728H26.256C26.496 54.448 26.752 53.184 27.008 51.936L28.368 46.16H30.4L31.776 51.936C32.032 53.168 32.256 54.448 32.528 55.728H32.608C32.768 54.448 32.96 53.184 33.12 51.936L34.08 46.16H36.32L34.128 58H31.168L29.856 52.144C29.648 51.232 29.488 50.304 29.344 49.408H29.28C29.12 50.304 28.944 51.232 28.768 52.144L27.472 58H24.576ZM42.6756 58.224C39.5236 58.224 37.3796 55.888 37.3796 52.032C37.3796 48.176 39.5236 45.952 42.6756 45.952C45.8116 45.952 47.9556 48.192 47.9556 52.032C47.9556 55.888 45.8116 58.224 42.6756 58.224ZM42.6756 56.176C44.4356 56.176 45.5556 54.56 45.5556 52.032C45.5556 49.504 44.4356 47.984 42.6756 47.984C40.8996 47.984 39.7956 49.504 39.7956 52.032C39.7956 54.56 40.8996 56.176 42.6756 56.176ZM50.2841 58V46.16H54.3961C56.8761 46.16 58.8441 47.024 58.8441 49.744C58.8441 52.384 56.8761 53.536 54.3961 53.536H52.6521V58H50.2841ZM52.6521 51.664H54.1721C55.7081 51.664 56.5401 51.008 56.5401 49.744C56.5401 48.48 55.7081 48.048 54.1721 48.048H52.6521V51.664ZM56.7161 58L53.9641 52.928L55.6121 51.44L59.3561 58H56.7161ZM59.4516 58L63.2436 46.16H66.0276L69.8196 58H67.3396L65.6436 51.84C65.2916 50.608 64.9556 49.232 64.6196 47.968H64.5556C64.2356 49.248 63.8996 50.608 63.5476 51.84L61.8516 58H59.4516ZM61.8036 54.96V53.136H67.4356V54.96H61.8036ZM72.911 58L69.279 46.16H71.775L73.327 51.92C73.695 53.248 73.967 54.416 74.335 55.76H74.415C74.799 54.416 75.055 53.248 75.407 51.92L76.943 46.16H79.359L75.727 58H72.911ZM80.7373 58V46.16H88.0013V48.128H83.1053V50.864H87.2493V52.864H83.1053V56.016H88.1773V58H80.7373ZM90.581 58V46.16H92.949V56.016H97.765V58H90.581Z" fill="#FF9559"/>
</svg>
