<svg width="147" height="148" viewBox="0 0 147 148" fill="none" xmlns="http://www.w3.org/2000/svg">
<rect x="0.25" y="0.25" width="146.5" height="147.5" rx="2.75" fill="white" stroke="#FF9559" stroke-width="0.5"/>
<path d="M37.576 81L35.288 69.16H37.704L38.632 74.936C38.824 76.184 39 77.448 39.192 78.728H39.256C39.496 77.448 39.752 76.184 40.008 74.936L41.368 69.16H43.4L44.776 74.936C45.032 76.168 45.256 77.448 45.528 78.728H45.608C45.768 77.448 45.96 76.184 46.12 74.936L47.08 69.16H49.32L47.128 81H44.168L42.856 75.144C42.648 74.232 42.488 73.304 42.344 72.408H42.28C42.12 73.304 41.944 74.232 41.768 75.144L40.472 81H37.576ZM55.6756 81.224C52.5236 81.224 50.3796 78.888 50.3796 75.032C50.3796 71.176 52.5236 68.952 55.6756 68.952C58.8116 68.952 60.9556 71.192 60.9556 75.032C60.9556 78.888 58.8116 81.224 55.6756 81.224ZM55.6756 79.176C57.4356 79.176 58.5556 77.56 58.5556 75.032C58.5556 72.504 57.4356 70.984 55.6756 70.984C53.8996 70.984 52.7956 72.504 52.7956 75.032C52.7956 77.56 53.8996 79.176 55.6756 79.176ZM63.2841 81V69.16H67.3961C69.8761 69.16 71.8441 70.024 71.8441 72.744C71.8441 75.384 69.8761 76.536 67.3961 76.536H65.6521V81H63.2841ZM65.6521 74.664H67.1721C68.7081 74.664 69.5401 74.008 69.5401 72.744C69.5401 71.48 68.7081 71.048 67.1721 71.048H65.6521V74.664ZM69.7161 81L66.9641 75.928L68.6121 74.44L72.3561 81H69.7161ZM72.4516 81L76.2436 69.16H79.0276L82.8196 81H80.3396L78.6436 74.84C78.2916 73.608 77.9556 72.232 77.6196 70.968H77.5556C77.2356 72.248 76.8996 73.608 76.5476 74.84L74.8516 81H72.4516ZM74.8036 77.96V76.136H80.4356V77.96H74.8036ZM85.911 81L82.279 69.16H84.775L86.327 74.92C86.695 76.248 86.967 77.416 87.335 78.76H87.415C87.799 77.416 88.055 76.248 88.407 74.92L89.943 69.16H92.359L88.727 81H85.911ZM93.7373 81V69.16H101.001V71.128H96.1053V73.864H100.249V75.864H96.1053V79.016H101.177V81H93.7373ZM103.581 81V69.16H105.949V79.016H110.765V81H103.581Z" fill="#FF9559"/>
</svg>
