
<svg width="147" height="148" viewBox="0 0 147 148" fill="none" xmlns="http://www.w3.org/2000/svg">
<rect x="0.25" y="0.25" width="146.5" height="147.5" rx="2.75" fill="white" stroke="#8BCDFB" stroke-width="0.5"/>
<path d="M42.808 81V71.128H39.464V69.16H48.52V71.128H45.176V81H42.808ZM48.1235 81L51.9155 69.16H54.6995L58.4915 81H56.0115L54.3155 74.84C53.9635 73.608 53.6275 72.232 53.2915 70.968H53.2275C52.9075 72.248 52.5715 73.608 52.2195 74.84L50.5235 81H48.1235ZM50.4755 77.96V76.136H56.1075V77.96H50.4755ZM59.8935 81V69.16H64.0055C66.4855 69.16 68.4535 70.024 68.4535 72.744C68.4535 75.384 66.4855 76.536 64.0055 76.536H62.2615V81H59.8935ZM62.2615 74.664H63.7815C65.3175 74.664 66.1495 74.008 66.1495 72.744C66.1495 71.48 65.3175 71.048 63.7815 71.048H62.2615V74.664ZM66.3255 81L63.5735 75.928L65.2215 74.44L68.9655 81H66.3255ZM69.061 81L72.853 69.16H75.637L79.429 81H76.949L75.253 74.84C74.901 73.608 74.565 72.232 74.229 70.968H74.165C73.845 72.248 73.509 73.608 73.157 74.84L71.461 81H69.061ZM71.413 77.96V76.136H77.045V77.96H71.413ZM82.5204 81L78.8884 69.16H81.3844L82.9364 74.92C83.3044 76.248 83.5764 77.416 83.9444 78.76H84.0244C84.4084 77.416 84.6644 76.248 85.0164 74.92L86.5524 69.16H88.9684L85.3364 81H82.5204ZM90.3466 81V69.16H97.6106V71.128H92.7146V73.864H96.8586V75.864H92.7146V79.016H97.7866V81H90.3466ZM100.19 81V69.16H102.558V79.016H107.374V81H100.19Z" fill="#8BCDFB"/>
</svg>
