<svg width="93" height="75" viewBox="0 0 93 75" fill="none" xmlns="http://www.w3.org/2000/svg">
<rect x="0.25" y="0.25" width="92.5" height="74.5" rx="4.75" fill="white" stroke="#FF9559" stroke-width="0.5"/>
<path d="M10.576 44L8.288 32.16H10.704L11.632 37.936C11.824 39.184 12 40.448 12.192 41.728H12.256C12.496 40.448 12.752 39.184 13.008 37.936L14.368 32.16H16.4L17.776 37.936C18.032 39.168 18.256 40.448 18.528 41.728H18.608C18.768 40.448 18.96 39.184 19.12 37.936L20.08 32.16H22.32L20.128 44H17.168L15.856 38.144C15.648 37.232 15.488 36.304 15.344 35.408H15.28C15.12 36.304 14.944 37.232 14.768 38.144L13.472 44H10.576ZM28.6756 44.224C25.5236 44.224 23.3796 41.888 23.3796 38.032C23.3796 34.176 25.5236 31.952 28.6756 31.952C31.8116 31.952 33.9556 34.192 33.9556 38.032C33.9556 41.888 31.8116 44.224 28.6756 44.224ZM28.6756 42.176C30.4356 42.176 31.5556 40.56 31.5556 38.032C31.5556 35.504 30.4356 33.984 28.6756 33.984C26.8996 33.984 25.7956 35.504 25.7956 38.032C25.7956 40.56 26.8996 42.176 28.6756 42.176ZM36.2841 44V32.16H40.3961C42.8761 32.16 44.8441 33.024 44.8441 35.744C44.8441 38.384 42.8761 39.536 40.3961 39.536H38.6521V44H36.2841ZM38.6521 37.664H40.1721C41.7081 37.664 42.5401 37.008 42.5401 35.744C42.5401 34.48 41.7081 34.048 40.1721 34.048H38.6521V37.664ZM42.7161 44L39.9641 38.928L41.6121 37.44L45.3561 44H42.7161ZM45.4516 44L49.2436 32.16H52.0276L55.8196 44H53.3396L51.6436 37.84C51.2916 36.608 50.9556 35.232 50.6196 33.968H50.5556C50.2356 35.248 49.8996 36.608 49.5476 37.84L47.8516 44H45.4516ZM47.8036 40.96V39.136H53.4356V40.96H47.8036ZM58.911 44L55.279 32.16H57.775L59.327 37.92C59.695 39.248 59.967 40.416 60.335 41.76H60.415C60.799 40.416 61.055 39.248 61.407 37.92L62.943 32.16H65.359L61.727 44H58.911ZM66.7373 44V32.16H74.0013V34.128H69.1053V36.864H73.2493V38.864H69.1053V42.016H74.1773V44H66.7373ZM76.581 44V32.16H78.949V42.016H83.765V44H76.581Z" fill="#FF9559"/>
</svg>
